# Blender v3.0.1 OBJ File: ''
# www.blender.org
mtllib sphere.mtl
o Sphere_Sphere.002
v 0.000000 0.866025 -0.500000
v 0.000000 0.500000 -0.866025
v 0.000000 0.258819 -0.965926
v 0.000000 -0.000000 -1.000000
v 0.000000 -0.258819 -0.965926
v 0.000000 -0.500000 -0.866025
v 0.000000 -0.866025 -0.500000
v 0.000000 -0.965926 -0.258819
v 0.129410 0.965926 -0.224144
v 0.250000 0.866025 -0.433013
v 0.353553 0.707107 -0.612372
v 0.433013 0.500000 -0.750000
v 0.482963 0.258819 -0.836516
v 0.500000 -0.000000 -0.866025
v 0.482963 -0.258819 -0.836516
v 0.433013 -0.500000 -0.750000
v 0.353553 -0.707107 -0.612372
v 0.250000 -0.866025 -0.433013
v 0.129410 -0.965926 -0.224144
v 0.224144 0.965926 -0.129409
v 0.433013 0.866025 -0.250000
v 0.612372 0.707107 -0.353553
v 0.750000 0.500000 -0.433013
v 0.836516 0.258819 -0.482963
v 0.866026 -0.000000 -0.500000
v 0.836516 -0.258819 -0.482963
v 0.750000 -0.500000 -0.433013
v 0.612372 -0.707107 -0.353553
v 0.433013 -0.866025 -0.250000
v 0.224144 -0.965926 -0.129410
v 0.258819 0.965926 0.000000
v 0.500000 0.866025 0.000000
v 0.707107 0.707107 0.000000
v 0.866026 0.500000 0.000000
v 0.965926 0.258819 0.000000
v 1.000000 -0.000000 0.000000
v 0.965926 -0.258819 0.000000
v 0.866026 -0.500000 0.000000
v 0.707107 -0.707107 0.000000
v 0.500000 -0.866025 0.000000
v 0.258819 -0.965926 0.000000
v 0.224144 0.965926 0.129410
v 0.433013 0.866025 0.250000
v 0.612373 0.707107 0.353554
v 0.750000 0.500000 0.433013
v 0.836516 0.258819 0.482963
v 0.866025 -0.000000 0.500000
v 0.836516 -0.258819 0.482963
v 0.750000 -0.500000 0.433013
v 0.612373 -0.707107 0.353554
v 0.433013 -0.866025 0.250000
v 0.224144 -0.965926 0.129410
v 0.129410 0.965926 0.224144
v 0.250000 0.866025 0.433013
v 0.353553 0.707107 0.612373
v 0.433013 0.500000 0.750000
v 0.482963 0.258819 0.836516
v 0.500000 -0.000000 0.866025
v 0.482963 -0.258819 0.836516
v 0.433013 -0.500000 0.750000
v 0.353553 -0.707107 0.612373
v 0.250000 -0.866025 0.433013
v 0.129410 -0.965926 0.224144
v -0.000000 0.965926 0.258819
v 0.000000 0.866025 0.500000
v -0.000000 0.707107 0.707107
v -0.000000 0.500000 0.866026
v 0.000000 0.258819 0.965926
v 0.000000 -0.000000 1.000000
v 0.000000 -0.258819 0.965926
v -0.000000 -0.500000 0.866026
v -0.000000 -0.707107 0.707107
v -0.000000 -0.866025 0.500000
v -0.000000 -0.965926 0.258819
v -0.129410 0.965926 0.224144
v -0.250000 0.866025 0.433013
v -0.353553 0.707107 0.612373
v -0.433013 0.500000 0.750000
v -0.482963 0.258819 0.836516
v -0.500000 -0.000000 0.866025
v -0.482963 -0.258819 0.836516
v -0.433013 -0.500000 0.750000
v -0.353553 -0.707107 0.612373
v -0.250000 -0.866025 0.433013
v -0.129410 -0.965926 0.224144
v -0.000000 1.000000 0.000000
v -0.224144 0.965926 0.129410
v -0.433013 0.866025 0.250000
v -0.612372 0.707107 0.353553
v -0.750000 0.500000 0.433013
v -0.836516 0.258819 0.482963
v -0.866025 -0.000000 0.500000
v -0.836516 -0.258819 0.482963
v -0.750000 -0.500000 0.433013
v -0.612372 -0.707107 0.353553
v -0.433013 -0.866025 0.250000
v -0.224144 -0.965926 0.129410
v -0.258819 0.965926 0.000000
v -0.500000 0.866025 0.000000
v -0.707107 0.707107 0.000000
v -0.866025 0.500000 0.000000
v -0.965926 0.258819 0.000000
v -1.000000 -0.000000 0.000000
v -0.965926 -0.258819 0.000000
v -0.866025 -0.500000 0.000000
v -0.707107 -0.707107 0.000000
v -0.500000 -0.866025 0.000000
v -0.258819 -0.965926 0.000000
v -0.224144 0.965926 -0.129409
v -0.433013 0.866025 -0.250000
v -0.612372 0.707107 -0.353553
v -0.750000 0.500000 -0.433013
v -0.836516 0.258819 -0.482963
v -0.866025 -0.000000 -0.500000
v -0.836516 -0.258819 -0.482963
v -0.750000 -0.500000 -0.433013
v -0.612372 -0.707107 -0.353553
v -0.433013 -0.866025 -0.250000
v -0.224144 -0.965926 -0.129410
v -0.129410 0.965926 -0.224144
v -0.250000 0.866025 -0.433013
v -0.353553 0.707107 -0.612372
v -0.433013 0.500000 -0.750000
v -0.482963 0.258819 -0.836516
v -0.500000 -0.000000 -0.866025
v -0.482963 -0.258819 -0.836516
v -0.433013 -0.500000 -0.750000
v -0.353553 -0.707107 -0.612372
v -0.250000 -0.866025 -0.433013
v -0.129410 -0.965926 -0.224144
v 0.000000 -1.000000 0.000000
v -0.000000 0.965926 -0.258819
v 0.000000 0.707107 -0.707107
v 0.000000 -0.707107 -0.707107
vt 0.750000 0.416667
vt 0.750000 0.500000
vt 0.666667 0.500000
vt 0.666667 0.416667
vt 0.750000 0.666667
vt 0.750000 0.750000
vt 0.666667 0.750000
vt 0.666667 0.666667
vt 0.750000 0.083333
vt 0.750000 0.166667
vt 0.666667 0.166667
vt 0.666667 0.083333
vt 0.750000 0.916667
vt 0.708333 1.000000
vt 0.666667 0.916667
vt 0.750000 0.333333
vt 0.666667 0.333333
vt 0.750000 0.583333
vt 0.666667 0.583333
vt 0.708333 0.000000
vt 0.750000 0.833333
vt 0.666667 0.833333
vt 0.750000 0.250000
vt 0.666667 0.250000
vt 0.583333 0.666667
vt 0.583333 0.583333
vt 0.625000 0.000000
vt 0.583333 0.083333
vt 0.583333 0.916667
vt 0.583333 0.833333
vt 0.583333 0.333333
vt 0.583333 0.250000
vt 0.583333 0.500000
vt 0.583333 0.750000
vt 0.583333 0.166667
vt 0.583333 0.416667
vt 0.625000 1.000000
vt 0.500000 0.750000
vt 0.500000 0.666667
vt 0.500000 0.166667
vt 0.500000 0.083333
vt 0.541667 1.000000
vt 0.500000 0.916667
vt 0.500000 0.416667
vt 0.500000 0.333333
vt 0.500000 0.583333
vt 0.541667 0.000000
vt 0.500000 0.833333
vt 0.500000 0.250000
vt 0.500000 0.500000
vt 0.416667 0.583333
vt 0.416667 0.500000
vt 0.416667 0.833333
vt 0.416667 0.750000
vt 0.416667 0.250000
vt 0.416667 0.166667
vt 0.416667 0.416667
vt 0.416667 0.666667
vt 0.416667 0.083333
vt 0.458333 1.000000
vt 0.416667 0.916667
vt 0.416667 0.333333
vt 0.458333 0.000000
vt 0.333333 0.666667
vt 0.333333 0.583333
vt 0.375000 0.000000
vt 0.333333 0.083333
vt 0.333333 0.916667
vt 0.333333 0.833333
vt 0.333333 0.333333
vt 0.333333 0.250000
vt 0.333333 0.500000
vt 0.333333 0.750000
vt 0.333333 0.166667
vt 0.333333 0.416667
vt 0.375000 1.000000
vt 0.250000 0.500000
vt 0.250000 0.416667
vt 0.250000 0.750000
vt 0.250000 0.666667
vt 0.250000 0.166667
vt 0.250000 0.083333
vt 0.291667 1.000000
vt 0.250000 0.916667
vt 0.250000 0.333333
vt 0.250000 0.583333
vt 0.291667 0.000000
vt 0.250000 0.833333
vt 0.250000 0.250000
vt 0.166667 0.583333
vt 0.166667 0.500000
vt 0.166667 0.833333
vt 0.166667 0.750000
vt 0.166667 0.250000
vt 0.166667 0.166667
vt 0.166667 0.416667
vt 0.166667 0.666667
vt 0.166667 0.083333
vt 0.208333 1.000000
vt 0.166667 0.916667
vt 0.166667 0.333333
vt 0.208333 0.000000
vt 0.083333 0.416667
vt 0.083333 0.333333
vt 0.083333 0.666667
vt 0.083333 0.583333
vt 0.125000 0.000000
vt 0.083333 0.083333
vt 0.083333 0.916667
vt 0.083333 0.833333
vt 0.083333 0.250000
vt 0.083333 0.500000
vt 0.083333 0.750000
vt 0.083333 0.166667
vt 0.125000 1.000000
vt 0.000000 0.500000
vt 0.000000 0.416667
vt 0.000000 0.750000
vt 0.000000 0.666667
vt 0.000000 0.166667
vt 0.000000 0.083333
vt 0.041667 1.000000
vt 0.000000 0.916667
vt 0.000000 0.333333
vt 0.000000 0.583333
vt 0.041667 0.000000
vt 0.000000 0.833333
vt 0.000000 0.250000
vt 1.000000 0.250000
vt 1.000000 0.333333
vt 0.916667 0.333333
vt 0.916667 0.250000
vt 1.000000 0.500000
vt 1.000000 0.583333
vt 0.916667 0.583333
vt 0.916667 0.500000
vt 1.000000 0.750000
vt 1.000000 0.833333
vt 0.916667 0.833333
vt 0.916667 0.750000
vt 1.000000 0.166667
vt 0.916667 0.166667
vt 1.000000 0.416667
vt 0.916667 0.416667
vt 1.000000 0.666667
vt 0.916667 0.666667
vt 1.000000 0.083333
vt 0.916667 0.083333
vt 1.000000 0.916667
vt 0.958333 1.000000
vt 0.916667 0.916667
vt 0.958333 0.000000
vt 0.875000 1.000000
vt 0.833333 0.916667
vt 0.833333 0.416667
vt 0.833333 0.333333
vt 0.833333 0.666667
vt 0.833333 0.583333
vt 0.875000 0.000000
vt 0.833333 0.083333
vt 0.833333 0.833333
vt 0.833333 0.250000
vt 0.833333 0.500000
vt 0.833333 0.750000
vt 0.833333 0.166667
vt 0.791667 1.000000
vt 0.791667 0.000000
vn 0.2568 -0.1262 -0.9582
vn 0.2079 0.5955 -0.7760
vn 0.1020 -0.9191 -0.3807
vn 0.0350 0.9908 -0.1304
vn 0.2403 -0.3715 -0.8968
vn 0.2403 0.3715 -0.8968
vn 0.0350 -0.9908 -0.1304
vn 0.1020 0.9191 -0.3807
vn 0.2079 -0.5955 -0.7760
vn 0.2568 0.1262 -0.9582
vn 0.1610 0.7830 -0.6008
vn 0.1610 -0.7830 -0.6008
vn 0.6565 0.3715 -0.6565
vn 0.0955 -0.9908 -0.0955
vn 0.2787 0.9191 -0.2787
vn 0.5681 -0.5955 -0.5681
vn 0.7015 0.1262 -0.7015
vn 0.4398 0.7830 -0.4398
vn 0.4398 -0.7830 -0.4398
vn 0.7015 -0.1262 -0.7015
vn 0.5681 0.5955 -0.5681
vn 0.2787 -0.9191 -0.2787
vn 0.0955 0.9908 -0.0955
vn 0.6565 -0.3715 -0.6565
vn 0.7760 0.5955 -0.2079
vn 0.3807 -0.9191 -0.1020
vn 0.1304 0.9908 -0.0350
vn 0.8968 -0.3715 -0.2403
vn 0.8968 0.3715 -0.2403
vn 0.1304 -0.9908 -0.0350
vn 0.3807 0.9191 -0.1020
vn 0.7760 -0.5955 -0.2079
vn 0.9582 0.1262 -0.2568
vn 0.6008 0.7830 -0.1610
vn 0.6008 -0.7830 -0.1610
vn 0.9582 -0.1262 -0.2568
vn 0.9582 0.1262 0.2568
vn 0.6008 0.7830 0.1610
vn 0.6008 -0.7830 0.1610
vn 0.9582 -0.1262 0.2568
vn 0.7760 0.5955 0.2079
vn 0.3807 -0.9191 0.1020
vn 0.1304 0.9908 0.0350
vn 0.8968 -0.3715 0.2403
vn 0.8968 0.3715 0.2403
vn 0.1304 -0.9908 0.0350
vn 0.3807 0.9191 0.1020
vn 0.7760 -0.5955 0.2079
vn 0.6565 0.3715 0.6565
vn 0.0955 -0.9908 0.0955
vn 0.2787 0.9191 0.2787
vn 0.5681 -0.5955 0.5681
vn 0.7015 0.1262 0.7015
vn 0.4398 0.7830 0.4398
vn 0.4398 -0.7830 0.4398
vn 0.7015 -0.1262 0.7015
vn 0.5681 0.5955 0.5681
vn 0.2787 -0.9191 0.2787
vn 0.0955 0.9908 0.0955
vn 0.6565 -0.3715 0.6565
vn 0.2568 -0.1262 0.9582
vn 0.2079 0.5955 0.7760
vn 0.1020 -0.9191 0.3807
vn 0.0350 0.9908 0.1304
vn 0.2403 -0.3715 0.8968
vn 0.2403 0.3715 0.8968
vn 0.0350 -0.9908 0.1304
vn 0.1020 0.9191 0.3807
vn 0.2079 -0.5955 0.7760
vn 0.2568 0.1262 0.9582
vn 0.1610 0.7830 0.6008
vn 0.1610 -0.7830 0.6008
vn -0.2568 0.1262 0.9582
vn -0.1610 0.7830 0.6008
vn -0.1610 -0.7830 0.6008
vn -0.2568 -0.1262 0.9582
vn -0.2079 0.5955 0.7760
vn -0.1020 -0.9191 0.3807
vn -0.0350 0.9908 0.1304
vn -0.2403 -0.3715 0.8968
vn -0.2403 0.3715 0.8968
vn -0.0350 -0.9908 0.1304
vn -0.1020 0.9191 0.3807
vn -0.2079 -0.5955 0.7760
vn -0.6565 -0.3715 0.6565
vn -0.6565 0.3715 0.6565
vn -0.0955 -0.9908 0.0955
vn -0.2787 0.9191 0.2787
vn -0.5681 -0.5955 0.5681
vn -0.7015 0.1262 0.7015
vn -0.4398 0.7830 0.4398
vn -0.4398 -0.7830 0.4398
vn -0.7015 -0.1262 0.7015
vn -0.5681 0.5955 0.5681
vn -0.2787 -0.9191 0.2787
vn -0.0955 0.9908 0.0955
vn -0.9582 -0.1262 0.2568
vn -0.7760 0.5955 0.2079
vn -0.3807 -0.9191 0.1020
vn -0.1304 0.9908 0.0350
vn -0.8968 -0.3715 0.2403
vn -0.8968 0.3715 0.2403
vn -0.1304 -0.9908 0.0350
vn -0.3807 0.9191 0.1020
vn -0.7760 -0.5955 0.2079
vn -0.9582 0.1262 0.2568
vn -0.6008 0.7830 0.1610
vn -0.6008 -0.7830 0.1610
vn -0.7760 -0.5955 -0.2079
vn -0.9582 0.1261 -0.2568
vn -0.6008 0.7830 -0.1610
vn -0.6008 -0.7830 -0.1610
vn -0.9582 -0.1261 -0.2568
vn -0.7760 0.5955 -0.2079
vn -0.3807 -0.9191 -0.1020
vn -0.1304 0.9908 -0.0350
vn -0.8968 -0.3715 -0.2403
vn -0.8968 0.3715 -0.2403
vn -0.1304 -0.9908 -0.0350
vn -0.3807 0.9191 -0.1020
vn -0.0955 0.9908 -0.0955
vn -0.6565 -0.3715 -0.6565
vn -0.6565 0.3715 -0.6565
vn -0.0955 -0.9908 -0.0955
vn -0.2787 0.9191 -0.2787
vn -0.5681 -0.5955 -0.5681
vn -0.7015 0.1262 -0.7015
vn -0.4398 0.7830 -0.4398
vn -0.4398 -0.7830 -0.4398
vn -0.7015 -0.1262 -0.7015
vn -0.5681 0.5955 -0.5681
vn -0.2787 -0.9191 -0.2787
vn -0.1610 -0.7830 -0.6008
vn -0.2568 -0.1262 -0.9582
vn -0.2079 0.5955 -0.7760
vn -0.1020 -0.9191 -0.3807
vn -0.0350 0.9908 -0.1304
vn -0.2403 -0.3715 -0.8968
vn -0.2403 0.3715 -0.8968
vn -0.0350 -0.9908 -0.1304
vn -0.1020 0.9191 -0.3807
vn -0.2079 -0.5955 -0.7760
vn -0.2568 0.1262 -0.9582
vn -0.1610 0.7830 -0.6008
usemtl None
s off
f 5/1/1 4/2/1 14/3/1 15/4/1
f 2/5/2 133/6/2 11/7/2 12/8/2
f 8/9/3 7/10/3 18/11/3 19/12/3
f 132/13/4 86/14/4 9/15/4
f 6/16/5 5/1/5 15/4/5 16/17/5
f 3/18/6 2/5/6 12/8/6 13/19/6
f 131/20/7 8/9/7 19/12/7
f 1/21/8 132/13/8 9/15/8 10/22/8
f 134/23/9 6/16/9 16/17/9 17/24/9
f 4/2/10 3/18/10 13/19/10 14/3/10
f 133/6/11 1/21/11 10/22/11 11/7/11
f 7/10/12 134/23/12 17/24/12 18/11/12
f 13/19/13 12/8/13 23/25/13 24/26/13
f 131/27/14 19/12/14 30/28/14
f 10/22/15 9/15/15 20/29/15 21/30/15
f 17/24/16 16/17/16 27/31/16 28/32/16
f 14/3/17 13/19/17 24/26/17 25/33/17
f 11/7/18 10/22/18 21/30/18 22/34/18
f 18/11/19 17/24/19 28/32/19 29/35/19
f 15/4/20 14/3/20 25/33/20 26/36/20
f 12/8/21 11/7/21 22/34/21 23/25/21
f 19/12/22 18/11/22 29/35/22 30/28/22
f 9/15/23 86/37/23 20/29/23
f 16/17/24 15/4/24 26/36/24 27/31/24
f 23/25/25 22/34/25 33/38/25 34/39/25
f 30/28/26 29/35/26 40/40/26 41/41/26
f 20/29/27 86/42/27 31/43/27
f 27/31/28 26/36/28 37/44/28 38/45/28
f 24/26/29 23/25/29 34/39/29 35/46/29
f 131/47/30 30/28/30 41/41/30
f 21/30/31 20/29/31 31/43/31 32/48/31
f 28/32/32 27/31/32 38/45/32 39/49/32
f 25/33/33 24/26/33 35/46/33 36/50/33
f 22/34/34 21/30/34 32/48/34 33/38/34
f 29/35/35 28/32/35 39/49/35 40/40/35
f 26/36/36 25/33/36 36/50/36 37/44/36
f 36/50/37 35/46/37 46/51/37 47/52/37
f 33/38/38 32/48/38 43/53/38 44/54/38
f 40/40/39 39/49/39 50/55/39 51/56/39
f 37/44/40 36/50/40 47/52/40 48/57/40
f 34/39/41 33/38/41 44/54/41 45/58/41
f 41/41/42 40/40/42 51/56/42 52/59/42
f 31/43/43 86/60/43 42/61/43
f 38/45/44 37/44/44 48/57/44 49/62/44
f 35/46/45 34/39/45 45/58/45 46/51/45
f 131/63/46 41/41/46 52/59/46
f 32/48/47 31/43/47 42/61/47 43/53/47
f 39/49/48 38/45/48 49/62/48 50/55/48
f 46/51/49 45/58/49 56/64/49 57/65/49
f 131/66/50 52/59/50 63/67/50
f 43/53/51 42/61/51 53/68/51 54/69/51
f 50/55/52 49/62/52 60/70/52 61/71/52
f 47/52/53 46/51/53 57/65/53 58/72/53
f 44/54/54 43/53/54 54/69/54 55/73/54
f 51/56/55 50/55/55 61/71/55 62/74/55
f 48/57/56 47/52/56 58/72/56 59/75/56
f 45/58/57 44/54/57 55/73/57 56/64/57
f 52/59/58 51/56/58 62/74/58 63/67/58
f 42/61/59 86/76/59 53/68/59
f 49/62/60 48/57/60 59/75/60 60/70/60
f 59/75/61 58/72/61 69/77/61 70/78/61
f 56/64/62 55/73/62 66/79/62 67/80/62
f 63/67/63 62/74/63 73/81/63 74/82/63
f 53/68/64 86/83/64 64/84/64
f 60/70/65 59/75/65 70/78/65 71/85/65
f 57/65/66 56/64/66 67/80/66 68/86/66
f 131/87/67 63/67/67 74/82/67
f 54/69/68 53/68/68 64/84/68 65/88/68
f 61/71/69 60/70/69 71/85/69 72/89/69
f 58/72/70 57/65/70 68/86/70 69/77/70
f 55/73/71 54/69/71 65/88/71 66/79/71
f 62/74/72 61/71/72 72/89/72 73/81/72
f 69/77/73 68/86/73 79/90/73 80/91/73
f 66/79/74 65/88/74 76/92/74 77/93/74
f 73/81/75 72/89/75 83/94/75 84/95/75
f 70/78/76 69/77/76 80/91/76 81/96/76
f 67/80/77 66/79/77 77/93/77 78/97/77
f 74/82/78 73/81/78 84/95/78 85/98/78
f 64/84/79 86/99/79 75/100/79
f 71/85/80 70/78/80 81/96/80 82/101/80
f 68/86/81 67/80/81 78/97/81 79/90/81
f 131/102/82 74/82/82 85/98/82
f 65/88/83 64/84/83 75/100/83 76/92/83
f 72/89/84 71/85/84 82/101/84 83/94/84
f 82/101/85 81/96/85 93/103/85 94/104/85
f 79/90/86 78/97/86 90/105/86 91/106/86
f 131/107/87 85/98/87 97/108/87
f 76/92/88 75/100/88 87/109/88 88/110/88
f 83/94/89 82/101/89 94/104/89 95/111/89
f 80/91/90 79/90/90 91/106/90 92/112/90
f 77/93/91 76/92/91 88/110/91 89/113/91
f 84/95/92 83/94/92 95/111/92 96/114/92
f 81/96/93 80/91/93 92/112/93 93/103/93
f 78/97/94 77/93/94 89/113/94 90/105/94
f 85/98/95 84/95/95 96/114/95 97/108/95
f 75/100/96 86/115/96 87/109/96
f 93/103/97 92/112/97 103/116/97 104/117/97
f 90/105/98 89/113/98 100/118/98 101/119/98
f 97/108/99 96/114/99 107/120/99 108/121/99
f 87/109/100 86/122/100 98/123/100
f 94/104/101 93/103/101 104/117/101 105/124/101
f 91/106/102 90/105/102 101/119/102 102/125/102
f 131/126/103 97/108/103 108/121/103
f 88/110/104 87/109/104 98/123/104 99/127/104
f 95/111/105 94/104/105 105/124/105 106/128/105
f 92/112/106 91/106/106 102/125/106 103/116/106
f 89/113/107 88/110/107 99/127/107 100/118/107
f 96/114/108 95/111/108 106/128/108 107/120/108
f 106/129/109 105/130/109 116/131/109 117/132/109
f 103/133/110 102/134/110 113/135/110 114/136/110
f 100/137/111 99/138/111 110/139/111 111/140/111
f 107/141/112 106/129/112 117/132/112 118/142/112
f 104/143/113 103/133/113 114/136/113 115/144/113
f 101/145/114 100/137/114 111/140/114 112/146/114
f 108/147/115 107/141/115 118/142/115 119/148/115
f 98/149/116 86/150/116 109/151/116
f 105/130/117 104/143/117 115/144/117 116/131/117
f 102/134/118 101/145/118 112/146/118 113/135/118
f 131/152/119 108/147/119 119/148/119
f 99/138/120 98/149/120 109/151/120 110/139/120
f 109/151/121 86/153/121 120/154/121
f 116/131/122 115/144/122 126/155/122 127/156/122
f 113/135/123 112/146/123 123/157/123 124/158/123
f 131/159/124 119/148/124 130/160/124
f 110/139/125 109/151/125 120/154/125 121/161/125
f 117/132/126 116/131/126 127/156/126 128/162/126
f 114/136/127 113/135/127 124/158/127 125/163/127
f 111/140/128 110/139/128 121/161/128 122/164/128
f 118/142/129 117/132/129 128/162/129 129/165/129
f 115/144/130 114/136/130 125/163/130 126/155/130
f 112/146/131 111/140/131 122/164/131 123/157/131
f 119/148/132 118/142/132 129/165/132 130/160/132
f 129/165/133 128/162/133 134/23/133 7/10/133
f 126/155/134 125/163/134 4/2/134 5/1/134
f 123/157/135 122/164/135 133/6/135 2/5/135
f 130/160/136 129/165/136 7/10/136 8/9/136
f 120/154/137 86/166/137 132/13/137
f 127/156/138 126/155/138 5/1/138 6/16/138
f 124/158/139 123/157/139 2/5/139 3/18/139
f 131/167/140 130/160/140 8/9/140
f 121/161/141 120/154/141 132/13/141 1/21/141
f 128/162/142 127/156/142 6/16/142 134/23/142
f 125/163/143 124/158/143 3/18/143 4/2/143
f 122/164/144 121/161/144 1/21/144 133/6/144
