# Blender v3.0.1 OBJ File: ''
# www.blender.org
mtllib cube_lod1.mtl
o Cube
v 0.500000 0.500000 0.166667
v 0.500000 -0.500000 -0.166667
v -0.500000 -0.500000 -0.500000
v -0.500000 0.500000 -0.166667
v -0.500000 -0.500000 0.500000
vt 0.375000 0.583333
vt 0.625000 1.000000
vt 0.375000 1.000000
vt 0.625000 0.166667
vt 0.375000 0.250000
vt 0.375000 0.000000
vt 0.125000 0.750000
vt 0.125000 0.500000
vt 0.625000 0.666667
vn 0.4851 0.4851 0.7276
vn -1.0000 0.0000 0.0000
vn 0.0000 -1.0000 0.0000
vn 0.3015 0.3015 -0.9045
vn -0.3015 -0.3015 0.9045
usemtl Material
s off
f 2/1/1 4/2/1 5/3/1
f 4/4/2 3/5/2 5/6/2
f 2/1/3 5/7/3 3/8/3
f 2/1/4 4/4/4 1/9/4
f 2/1/5 1/9/5 4/2/5
f 2/1/4 3/5/4 4/4/4
