# Blender v3.0.1 OBJ File: ''
# www.blender.org
mtllib kitten_lod3.mtl
o kitten
v 0.277324 0.358682 -0.106389
v -0.027381 -0.290364 0.138438
v -0.021644 0.172123 0.236338
v -0.160288 0.339240 -0.011936
v 0.241472 0.434655 -0.099917
v -0.031984 -0.085186 -0.064088
v -0.059252 -0.489867 -0.094239
v -0.054888 -0.477325 -0.075124
v 0.084245 -0.200028 0.174351
v 0.274618 0.496336 -0.025815
v 0.019737 -0.237474 -0.163980
v -0.003237 0.155295 0.278992
v 0.053338 -0.092142 0.138601
v 0.167392 -0.481131 -0.045945
v -0.214033 0.026352 -0.133743
v -0.279117 0.144085 -0.012257
v 0.017360 -0.490203 -0.044251
v 0.003466 -0.467396 -0.034730
v 0.072832 -0.487389 0.030846
v -0.238939 -0.153651 -0.171158
v -0.124353 -0.042223 0.042373
v -0.320874 0.328444 -0.052336
v -0.071684 -0.490014 0.025558
v -0.164244 0.210091 -0.184543
v -0.028428 -0.391034 0.105471
v 0.132315 -0.036171 -0.150598
v -0.257299 -0.376922 -0.164128
v -0.097085 -0.367798 -0.283747
v -0.241116 0.131584 -0.132678
v -0.060362 -0.447747 0.138084
v 0.230127 0.142349 -0.167646
v 0.221024 -0.004586 -0.092608
v -0.208155 0.065363 -0.099759
v 0.146348 -0.091623 0.072847
v 0.050807 0.188091 -0.266349
v -0.058446 -0.489112 -0.192912
v -0.182875 0.086059 0.101003
v -0.070800 0.134416 -0.246687
v -0.018113 -0.117673 -0.018145
v -0.305065 -0.108108 -0.220896
v -0.160832 0.163587 0.146163
v 0.083502 -0.101154 -0.066075
v -0.213658 0.091253 -0.212305
v 0.319273 0.325484 0.004705
v 0.071464 -0.432116 -0.124381
v 0.071812 0.403564 0.072216
v 0.117524 -0.085868 0.116461
v -0.184145 -0.145045 -0.168502
v 0.163805 -0.442861 -0.054937
v -0.074256 -0.387526 0.069459
v 0.172633 -0.255324 -0.002140
v -0.047021 0.261411 0.216931
v -0.265696 -0.328381 0.009685
v -0.015145 -0.433460 -0.204813
v -0.163856 -0.134465 -0.120968
v -0.019412 -0.094803 0.101713
v -0.206281 0.077180 0.025218
v 0.224771 0.262523 0.143387
v -0.166676 -0.413825 0.072478
v -0.262212 -0.086721 -0.175063
v -0.090570 -0.269899 -0.292849
v -0.048252 0.250229 -0.240309
v 0.045220 -0.398937 -0.122662
v 0.048540 0.355961 -0.177429
v -0.177877 0.070763 -0.196284
v 0.037881 -0.315108 -0.202686
v 0.037168 -0.313877 -0.133226
v 0.147837 -0.251626 -0.049280
v 0.141141 -0.486478 -0.112452
v 0.007816 0.294359 -0.231431
v -0.149475 0.004328 -0.115629
v -0.142501 0.009103 -0.153569
v 0.114674 -0.357770 0.042472
v 0.042975 0.151911 0.284929
v -0.262150 0.327129 -0.103723
v 0.176446 0.249809 0.183837
v -0.292498 -0.225088 -0.160354
v -0.018494 0.324966 0.186265
v -0.051582 -0.163359 -0.048521
v -0.143142 0.006034 0.127912
v -0.286336 -0.347574 -0.056490
v -0.255499 -0.084734 -0.276150
v 0.099560 0.333913 0.181278
v 0.046374 -0.390313 0.096756
v 0.032587 -0.271807 0.171207
v 0.309297 0.316183 -0.067024
v -0.117748 -0.252662 0.050996
v -0.074085 0.309638 -0.193181
v -0.008294 -0.491823 0.002231
v -0.228638 -0.170547 -0.053595
v -0.185354 -0.168769 -0.248733
v 0.117685 -0.278678 0.145199
v -0.116699 0.135968 0.156506
v 0.247713 0.492439 0.005330
v -0.089119 -0.189780 0.014198
v -0.024111 -0.146383 0.069560
v -0.212158 0.225277 -0.021594
v 0.176210 -0.219680 0.067171
v -0.179462 0.001996 -0.132328
v 0.139767 -0.211580 0.138785
v 0.125572 0.413620 -0.006323
v -0.015274 0.407093 -0.024312
v 0.056862 0.051606 0.273573
v 0.174070 -0.006369 0.193010
v -0.050602 -0.469278 0.014845
v -0.126621 0.223066 0.178190
v 0.311644 0.427734 -0.055994
v -0.165350 -0.450543 0.100085
v -0.032141 -0.202970 -0.228603
v 0.062468 -0.363103 -0.109441
v -0.049350 0.077341 0.258009
v 0.149182 -0.120067 0.002875
v 0.160640 -0.274846 0.090625
v 0.217603 0.091595 0.193815
v 0.042041 0.069861 -0.256485
v -0.312978 0.233973 -0.023895
v -0.238217 -0.239491 0.015753
v -0.076345 -0.432271 0.108638
v -0.123976 0.301196 0.141661
v 0.250847 0.251490 -0.114595
v -0.215666 -0.142722 -0.255300
v 0.147158 0.367338 -0.128471
v -0.191928 0.135665 -0.176688
v -0.275245 -0.234565 -0.039416
v -0.195978 -0.211252 -0.282707
v 0.123870 -0.392731 -0.068771
v 0.144815 0.399780 0.041945
v 0.195479 0.306470 -0.146390
v -0.034197 -0.303393 -0.278608
v -0.310224 0.223455 -0.083849
v -0.277804 0.356751 -0.062482
v -0.254050 0.245458 -0.150361
v -0.022797 -0.154231 -0.010754
v -0.136007 -0.445169 0.117272
v -0.285516 -0.157054 -0.176375
v 0.017541 -0.488437 -0.190691
v 0.310659 0.452923 -0.005090
v -0.213797 -0.103303 -0.206302
v 0.023655 -0.477675 0.144352
v 0.282174 0.209936 -0.036774
v 0.148743 0.061251 0.253002
v -0.032771 -0.483742 -0.019808
v -0.176559 0.018992 -0.203339
v 0.220221 0.342842 0.003628
v 0.032551 -0.462375 -0.191457
v -0.155788 -0.486745 0.088525
v 0.116047 -0.409521 0.007200
v 0.143619 -0.090783 -0.029173
v -0.143195 0.058579 -0.188952
v 0.049598 -0.234863 -0.121873
v -0.269029 -0.154468 -0.285881
v -0.204695 0.037356 -0.187990
v 0.026199 -0.114100 -0.053451
v -0.157147 0.283844 -0.148350
v 0.241015 -0.007508 0.061232
v 0.082417 -0.484725 -0.123664
v 0.260966 0.051905 0.103804
v -0.284651 0.350151 -0.028952
v -0.086724 -0.043206 0.155876
v 0.052358 0.183854 0.235329
v -0.102199 0.048067 0.175612
v -0.015584 -0.489996 0.149251
v -0.184434 -0.395208 -0.245285
v 0.121312 -0.366034 -0.019471
v -0.234257 -0.111095 -0.184201
v -0.143663 0.104921 0.141652
v 0.134999 0.361860 0.130048
v -0.109423 -0.190506 -0.255984
v -0.080019 -0.489014 0.103649
v 0.004350 0.116268 0.288688
v 0.066504 0.275405 0.220407
v 0.091637 -0.031028 0.222790
v 0.003168 -0.185287 -0.114049
v -0.095648 -0.158609 -0.198438
v -0.210440 -0.069374 -0.240666
v -0.135096 0.059915 0.146167
v 0.044136 0.017373 0.253394
v 0.208944 0.469761 -0.041164
v -0.254333 0.068048 -0.157169
v 0.128253 0.400314 -0.078934
v -0.299549 -0.163601 -0.249392
v -0.250712 0.094481 -0.172559
v -0.152820 0.324175 -0.100498
v -0.199443 -0.449190 0.028809
v -0.120931 -0.481588 -0.216802
v 0.084255 0.087771 0.281882
v -0.020725 -0.444851 0.157507
v 0.152572 0.137066 0.195147
v 0.104776 -0.346661 -0.075645
v -0.070636 0.127770 0.197254
v 0.151618 0.034865 -0.206984
v 0.026175 -0.170895 -0.073590
v -0.002690 -0.366021 -0.244587
v -0.061639 -0.205625 0.068854
v 0.027392 -0.027041 -0.192579
v -0.186651 0.214214 0.113702
v -0.210127 -0.146778 -0.197159
v -0.012613 0.378336 0.124586
v -0.209161 -0.485963 -0.057892
v 0.125930 0.257581 -0.223277
v -0.220206 0.031425 -0.163855
v 0.008816 -0.204521 0.163597
v 0.164237 0.200817 0.179500
v 0.279006 0.240911 0.049084
v 0.153167 -0.447521 -0.108024
v -0.201208 -0.292717 0.058241
v -0.218038 0.109456 0.026945
v -0.267996 -0.183862 -0.143216
v 0.008170 -0.387425 0.110495
v 0.284056 0.077531 0.008425
v -0.010042 0.389443 -0.108840
v -0.022869 0.035036 0.273487
v -0.186450 -0.487552 -0.174740
v -0.062407 0.384459 0.073667
v 0.156387 0.170122 -0.230162
v 0.005213 -0.111545 0.118784
v 0.012820 -0.269966 -0.230643
v 0.112446 -0.150187 -0.052502
v 0.254558 0.083985 -0.116480
v -0.163928 -0.170320 -0.011096
v 0.020888 -0.050635 0.210545
v -0.173191 0.323080 0.007321
v -0.097161 -0.482951 -0.020465
v 0.246841 0.147261 0.152998
v -0.029978 -0.106080 0.047295
v -0.169807 -0.027440 -0.177572
vn -0.2438 0.9314 -0.2702
vn -0.2705 0.9504 0.1536
vn -0.2048 0.8810 -0.4265
vn 0.9665 0.0951 -0.2386
vn 0.8954 -0.3350 0.2935
vn 0.9844 0.0359 0.1723
vn 0.7815 0.0925 0.6170
vn 0.9134 0.1550 0.3763
vn 0.7081 0.4153 0.5711
vn 0.3752 -0.7334 -0.5668
vn -0.0661 -0.7061 -0.7050
vn 0.4727 -0.4242 -0.7724
vn -0.5133 0.1715 -0.8409
vn -0.9128 -0.1964 -0.3582
vn -0.9029 0.4291 0.0268
vn 0.3750 -0.0438 0.9260
vn 0.2302 0.4635 0.8557
vn 0.4685 0.4552 0.7572
vn 0.1815 0.5248 0.8316
vn 0.7035 0.0547 0.7085
vn -0.4965 -0.4062 -0.7671
vn -0.8589 -0.3924 -0.3292
vn -0.9027 -0.1023 -0.4180
vn 0.8614 -0.3763 0.3412
vn 0.9607 -0.1342 -0.2428
vn -0.8319 -0.5036 0.2331
vn -0.7858 -0.1292 0.6049
vn -0.8358 -0.4052 0.3706
vn 0.8223 0.0330 0.5681
vn 0.9011 -0.1482 -0.4076
vn 0.8383 0.3057 -0.4514
vn -0.3143 0.3172 0.8948
vn 0.1392 0.3231 0.9360
vn -0.2140 0.6367 0.7409
vn -0.1799 0.4289 -0.8853
vn 0.8390 0.3927 -0.3766
vn 0.1757 0.2548 -0.9509
vn 0.6395 -0.3164 -0.7007
vn 0.0410 -0.3343 -0.9416
vn 0.4718 0.0436 -0.8806
vn 0.5646 0.8177 0.1121
vn 0.3622 0.7580 -0.5424
vn -0.3137 -0.4360 -0.8435
vn 0.5479 0.1464 -0.8236
vn -0.0216 0.6940 -0.7196
vn -0.0057 -0.9782 -0.2074
vn -0.1898 -0.8606 0.4726
vn -0.4363 -0.7762 0.4551
vn -0.6916 0.5968 0.4068
vn -0.7362 0.6324 -0.2408
vn -0.2528 0.8066 0.5343
vn 0.8723 -0.2337 -0.4296
vn 0.7738 -0.0233 -0.6330
vn 0.9746 -0.1332 -0.1803
vn -0.0272 -0.3986 0.9167
vn -0.1083 -0.7538 0.6481
vn -0.6089 -0.6297 0.4824
vn -0.8321 -0.3527 0.4280
vn -0.5045 0.2507 0.8262
vn -0.8218 -0.0846 0.5635
vn 0.7317 -0.5869 -0.3466
vn 0.4661 0.7088 -0.5295
vn 0.8040 0.4340 -0.4064
vn 0.4475 0.8267 -0.3411
vn -0.4334 0.0056 -0.9012
vn 0.0564 0.7546 -0.6538
vn 0.4048 0.3841 -0.8298
vn -0.0342 0.5252 -0.8503
vn -0.5312 0.1096 -0.8401
vn -0.9489 -0.3156 -0.0038
vn -0.2383 0.1625 -0.9575
vn 0.3467 -0.7558 -0.5555
vn 0.5812 0.0680 -0.8109
vn 0.5355 0.3368 -0.7745
vn 0.7255 0.0902 0.6822
vn 0.0158 -0.9996 0.0241
vn 0.5145 0.0528 -0.8559
vn 0.0324 -0.3309 -0.9431
vn 0.0975 0.1063 -0.9895
vn 0.7594 -0.0168 -0.6504
vn -0.4191 0.8515 -0.3153
vn -0.0463 0.7699 0.6364
vn 0.3436 0.9265 -0.1535
vn -0.2152 0.9061 -0.3642
vn -0.2294 0.9709 -0.0681
vn -0.1963 0.8923 -0.4065
vn -0.0601 -0.7317 0.6789
vn -0.0489 0.2570 0.9652
vn -0.6295 0.1500 0.7624
vn 0.2649 0.9155 -0.3027
vn 0.0255 0.9993 0.0282
vn 0.4915 -0.7885 0.3698
vn 0.4412 -0.6485 -0.6203
vn 0.1151 -0.8705 -0.4786
vn 0.5314 -0.2726 -0.8021
vn 0.9543 -0.2110 0.2115
vn 0.4369 -0.1162 0.8920
vn -0.4714 -0.8170 -0.3322
vn -0.6596 -0.3503 0.6650
vn -0.0370 -0.6562 0.7537
vn -0.4870 -0.8733 0.0129
vn -0.4255 -0.0703 0.9022
vn -0.5791 0.3283 0.7463
vn -0.1033 -0.8280 -0.5511
vn 0.2474 0.7966 0.5515
vn 0.4062 0.7562 0.5130
vn 0.4352 0.3570 0.8265
vn 0.2344 0.6382 0.7333
vn 0.0315 0.9491 0.3133
vn -0.2718 0.9600 0.0667
vn 0.5416 0.6355 -0.5503
vn 0.1650 0.1760 -0.9705
vn 0.2427 0.6530 -0.7175
vn -0.2723 0.6376 -0.7206
vn -0.6199 0.5554 0.5544
vn -0.5448 0.5938 0.5921
vn -0.8724 0.1895 0.4506
vn 0.6018 -0.5656 0.5639
vn 0.7900 -0.6007 0.1225
vn 0.9039 -0.2741 0.3285
vn 0.5112 -0.1242 0.8504
vn 0.2545 -0.7329 -0.6309
vn -0.9561 0.2925 -0.0190
vn -0.8721 -0.4851 0.0633
vn -0.8384 -0.3467 -0.4206
vn 0.1187 -0.8676 -0.4828
vn -0.5380 -0.8398 -0.0722
vn 0.0408 -0.9956 -0.0842
vn 0.0753 -0.9304 0.3588
vn -0.0713 -0.9957 0.0585
vn -0.6784 -0.7331 0.0482
vn -0.2233 0.1854 0.9569
vn -0.3431 0.4029 0.8485
vn 0.7605 -0.5362 -0.3663
vn -0.3310 0.2092 0.9202
vn -0.3776 0.3666 0.8503
vn 0.7696 0.3511 0.5333
vn 0.8078 -0.0510 -0.5873
vn -0.7931 -0.4197 0.4413
vn -0.9614 -0.2485 0.1178
vn -0.5573 -0.8279 0.0626
vn -0.3946 0.6267 -0.6720
vn -0.3250 0.5831 -0.7446
vn 0.2357 -0.6605 0.7129
vn -0.0188 -0.4062 -0.9136
vn 0.4276 0.0889 -0.8996
vn 0.7668 0.2961 -0.5695
vn 0.1197 0.5767 -0.8081
vn -0.9276 -0.1560 -0.3394
vn -0.4219 0.2187 -0.8799
vn 0.4591 0.1928 0.8672
vn -0.5538 -0.6954 0.4581
vn -0.4583 0.3483 0.8177
vn 0.8101 -0.5330 0.2443
vn 0.6992 0.2529 -0.6687
vn -0.5468 0.4389 0.7130
vn -0.8696 0.3496 0.3487
vn -0.7892 -0.5499 0.2735
vn 0.6627 0.1882 -0.7249
vn -0.4263 0.2678 0.8640
vn -0.3325 -0.3712 0.8670
vn -0.1788 0.0220 0.9836
vn -0.7258 0.0678 0.6845
vn -0.0311 0.9980 0.0546
vn -0.0864 0.7825 0.6166
vn -0.5015 0.7843 0.3651
vn -0.9777 -0.0598 -0.2013
vn -0.4682 0.1860 0.8638
vn -0.6138 0.2024 0.7631
vn 0.1164 -0.3722 0.9208
vn 0.0605 -0.5350 0.8427
vn 0.5635 0.0375 -0.8253
vn -0.0909 -0.2424 0.9659
vn 0.2522 0.1231 0.9598
vn 0.6012 -0.3816 0.7021
vn -0.0587 -0.9758 -0.2104
vn 0.9743 -0.2249 -0.0159
vn -0.1829 0.8516 0.4913
vn -0.3928 0.8800 0.2670
vn 0.7839 -0.0186 -0.6206
vn 0.8080 0.0226 -0.5888
vn 0.9884 -0.1465 -0.0389
vn 0.0146 -0.9904 0.1376
vn 0.9353 0.0259 -0.3530
vn -0.3135 0.3015 -0.9004
vn -0.7323 0.2161 0.6458
vn 0.8259 -0.0550 -0.5612
vn 0.8089 0.4631 -0.3622
vn 0.8696 -0.0513 0.4911
vn -0.0014 -0.2710 -0.9626
vn -0.0737 -0.7654 -0.6393
vn -0.3398 -0.1000 -0.9352
vn -0.4057 0.2285 -0.8850
vn -0.7080 0.0123 0.7061
vn -0.7150 0.5842 0.3840
vn -0.9946 0.0237 0.1013
vn 0.1981 -0.6230 -0.7567
vn -0.3494 0.6692 0.6559
vn -0.9550 0.2706 0.1213
vn 0.8756 -0.4810 0.0447
vn -0.6712 -0.1347 0.7289
vn -0.6115 0.1291 0.7807
vn -0.7942 0.1880 0.5778
vn 0.1483 -0.0127 0.9889
vn 0.5380 -0.3916 0.7465
vn 0.6152 -0.2688 0.7411
vn 0.6076 -0.4337 0.6654
vn -0.4499 -0.8180 -0.3585
vn -0.4356 0.2274 0.8709
vn -0.8575 0.2425 -0.4537
vn 0.9313 0.3488 0.1047
vn -0.0133 0.9820 -0.1882
vn -0.8433 -0.1989 0.4992
vn -0.6775 -0.0481 0.7339
vn -0.7375 -0.0377 0.6743
vn -0.3628 0.5937 0.7183
vn -0.5737 -0.1269 0.8092
vn -0.1528 0.7991 0.5815
vn -0.5074 -0.1822 0.8423
vn -0.5323 -0.2101 0.8200
vn 0.5787 0.1006 -0.8093
vn 0.4492 0.2856 -0.8465
vn 0.2916 -0.0515 0.9552
vn 0.0978 0.6558 -0.7486
vn -0.5522 0.2187 0.8046
vn 0.8167 -0.4590 0.3497
usemtl Default_OBJ
s 1
f 131//1 4//2 183//3
f 112//4 34//5 98//6
f 224//7 204//8 58//9
f 26//10 195//11 191//12
f 132//13 130//14 22//15
f 203//16 160//17 188//18
f 74//19 114//20 188//18
f 163//21 27//22 181//23
f 113//24 51//25 98//6
f 57//26 207//27 16//28
f 44//29 86//30 107//31
f 224//7 188//18 114//20
f 52//32 171//33 78//34
f 82//35 121//36 125//37
f 193//38 28//39 129//40
f 197//41 91//42 121//36
f 153//43 218//44 192//45
f 23//46 169//47 146//48
f 194//49 133//50 95//51
f 219//52 31//53 140//54
f 13//55 221//56 56//57
f 184//58 59//59 53//60
f 26//10 191//12 32//61
f 150//62 11//63 173//64
f 125//37 151//65 82//35
f 64//66 200//67 70//68
f 152//69 179//70 43//71
f 156//72 145//73 45//74
f 34//5 100//75 98//6
f 23//46 146//48 223//76
f 215//77 115//78 35//79
f 200//67 120//80 215//77
f 178//81 94//82 10//83
f 211//84 102//85 180//86
f 162//87 187//88 30//89
f 174//90 79//91 173//64
f 19//92 156//72 69//93
f 36//94 193//38 54//95
f 138//96 165//97 197//41
f 27//22 163//21 213//98
f 180//86 64//66 211//84
f 15//99 99//100 71//101
f 165//97 60//102 135//103
f 105//104 23//46 223//76
f 127//105 167//106 144//107
f 83//108 78//34 171//33
f 102//85 46//109 101//110
f 109//111 61//112 168//113
f 75//114 132//13 22//15
f 119//115 222//116 196//117
f 109//111 129//40 61//112
f 138//96 197//41 121//36
f 104//118 155//119 157//120
f 114//20 141//121 104//118
f 144//107 204//8 44//29
f 44//29 204//8 140//54
f 54//95 145//73 136//122
f 152//69 82//35 40//123
f 133//50 225//124 39//125
f 99//100 72//126 71//101
f 82//35 151//65 40//123
f 18//127 142//128 8//129
f 61//112 125//37 168//113
f 156//72 17//130 136//122
f 225//124 56//57 21//131
f 59//59 134//132 118//133
f 148//134 112//4 218//44
f 206//135 59//59 87//136
f 44//29 137//137 144//107
f 138//96 121//36 175//138
f 57//26 21//131 80//139
f 181//23 151//65 163//21
f 184//58 81//140 199//141
f 183//3 88//142 154//143
f 104//118 141//121 172//144
f 152//69 65//145 143//146
f 129//40 109//111 217//147
f 178//81 5//148 180//86
f 43//71 29//149 123//150
f 58//9 76//151 224//7
f 21//131 56//57 159//152
f 151//65 28//39 163//21
f 46//109 167//106 127//105
f 169//47 30//89 118//133
f 40//123 135//103 60//102
f 154//143 132//13 75//114
f 52//32 3//153 160//17
f 199//141 223//76 146//48
f 14//154 69//93 205//155
f 53//60 117//156 124//157
f 71//101 33//158 15//99
f 79//91 133//50 173//64
f 63//159 145//73 54//95
f 50//160 87//136 59//59
f 82//35 152//69 143//146
f 15//99 40//123 60//102
f 212//161 170//162 111//163
f 55//164 20//165 90//166
f 15//99 179//70 201//167
f 60//102 165//97 99//100
f 28//39 151//65 125//37
f 194//49 202//168 216//169
f 103//170 212//161 177//171
f 63//159 110//172 45//74
f 85//173 9//174 202//168
f 167//106 58//9 144//107
f 139//175 187//88 162//87
f 89//176 142//128 18//127
f 210//177 219//52 140//54
f 198//178 46//109 214//179
f 189//180 68//181 164//182
f 61//112 28//39 125//37
f 8//129 223//76 7//183
f 193//38 129//40 66//184
f 222//116 119//115 4//2
f 88//142 62//185 154//143
f 3//153 190//186 111//163
f 66//184 11//63 67//187
f 120//80 31//53 215//77
f 126//188 164//182 147//189
f 105//104 223//76 142//128
f 149//190 65//145 43//71
f 156//72 19//92 17//130
f 169//47 162//87 30//89
f 154//143 131//1 183//3
f 64//66 70//68 88//142
f 7//183 17//130 8//129
f 185//191 163//21 28//39
f 38//192 35//79 115//78
f 68//181 51//25 164//182
f 89//176 169//47 23//46
f 24//193 123//150 132//13
f 216//169 13//55 56//57
f 108//194 184//58 146//48
f 208//195 135//103 77//196
f 195//11 26//10 42//197
f 110//172 11//63 189//180
f 185//191 28//39 36//94
f 40//123 181//23 77//196
f 193//38 63//159 54//95
f 126//188 45//74 110//172
f 174//90 109//111 168//113
f 79//91 174//90 55//164
f 158//198 131//1 22//15
f 96//199 216//169 56//57
f 77//196 81//140 124//157
f 44//29 107//31 137//137
f 39//125 153//43 133//50
f 168//113 125//37 91//42
f 165//97 226//200 99//100
f 41//201 106//202 196//117
f 134//132 169//47 118//133
f 161//203 80//139 111//163
f 95//51 133//50 79//91
f 19//92 69//93 14//154
f 202//168 9//174 13//55
f 94//82 127//105 144//107
f 209//204 92//205 85//173
f 92//205 209//204 84//206
f 7//183 136//122 17//130
f 110//172 67//187 11//63
f 104//118 47//207 34//5
f 101//110 94//82 178//81
f 123//150 149//190 43//71
f 56//57 221//56 159//152
f 6//208 21//131 71//101
f 139//175 162//87 19//92
f 181//23 40//123 151//65
f 75//114 22//15 131//1
f 24//193 154//143 62//185
f 223//76 8//129 142//128
f 192//45 150//62 173//64
f 221//56 172//144 177//171
f 105//104 89//176 23//46
f 25//209 187//88 209//204
f 145//73 156//72 136//122
f 163//21 185//191 213//98
f 179//70 29//149 182//210
f 34//5 155//119 104//118
f 66//184 217//147 11//63
f 106//202 52//32 119//115
f 38//192 149//190 123//150
f 14//154 49//211 147//189
f 215//77 31//53 191//12
f 36//94 28//39 193//38
f 126//188 205//155 45//74
f 19//92 14//154 147//189
f 53//60 81//140 184//58
f 126//188 110//172 189//180
f 7//183 199//141 213//98
f 48//212 174//90 91//42
f 62//185 35//79 38//192
f 37//213 207//27 57//26
f 224//7 203//16 188//18
f 215//77 35//79 200//67
f 199//141 7//183 223//76
f 161//203 176//214 80//139
f 20//165 208//195 90//166
f 84//206 19//92 147//189
f 103//170 170//162 212//161
f 16//28 207//27 116//215
f 30//89 25//209 118//133
f 89//176 18//127 17//130
f 224//7 76//151 203//16
f 84//206 209//204 139//175
f 36//94 7//183 213//98
f 125//37 121//36 91//42
f 75//114 131//1 154//143
f 19//92 89//176 17//130
f 102//85 214//179 46//109
f 36//94 54//95 136//122
f 102//85 101//110 180//86
f 153//43 6//208 195//11
f 63//159 67//187 110//172
f 9//174 85//173 92//205
f 179//70 182//210 43//71
f 109//111 11//63 217//147
f 158//198 222//116 4//2
f 18//127 8//129 17//130
f 148//134 42//197 26//10
f 148//134 155//119 34//5
f 130//14 132//13 29//149
f 68//181 218//44 51//25
f 4//2 131//1 158//198
f 162//87 89//176 19//92
f 32//61 155//119 148//134
f 111//163 12//216 3//153
f 101//110 46//109 127//105
f 148//134 34//5 112//4
f 100//75 9//174 92//205
f 87//136 2//217 202//168
f 49//211 205//155 126//188
f 112//4 98//6 51//25
f 9//174 100//75 34//5
f 214//179 102//85 4//2
f 61//112 129//40 28//39
f 220//218 79//91 55//164
f 161//203 111//163 190//186
f 200//67 35//79 70//68
f 153//43 42//197 218//44
f 149//190 195//11 72//126
f 168//113 91//42 174//90
f 93//219 166//220 176//214
f 171//33 76//151 83//108
f 15//99 201//167 40//123
f 144//107 58//9 204//8
f 146//48 169//47 134//132
f 120//80 1//221 86//30
f 69//93 156//72 45//74
f 21//131 57//26 33//158
f 165//97 138//96 226//200
f 108//194 146//48 134//132
f 153//43 195//11 42//197
f 80//139 37//213 57//26
f 200//67 128//222 120//80
f 2//217 87//136 50//160
f 186//223 74//19 170//162
f 128//222 200//67 122//224
f 158//198 116//215 97//225
f 210//177 224//7 157//120
f 53//60 124//157 81//140
f 226//200 138//96 175//138
f 92//205 84//206 73//226
f 5//148 128//222 122//224
f 207//27 196//117 97//225
f 5//148 10//83 107//31
f 147//189 164//182 73//226
f 13//55 47//207 172//144
f 86//30 1//221 107//31
f 33//158 29//149 179//70
f 126//188 147//189 49//211
f 181//23 27//22 77//196
f 72//126 99//100 226//200
f 56//57 225//124 96//199
f 57//26 16//28 33//158
f 220//218 117//156 206//135
f 1//221 128//222 5//148
f 127//105 94//82 101//110
f 66//184 129//40 217//147
f 27//22 213//98 199//141
f 68//181 150//62 218//44
f 15//99 60//102 99//100
f 120//80 128//222 1//221
f 226//200 175//138 143//146
f 69//93 45//74 205//155
f 173//64 109//111 174//90
f 73//226 113//24 92//205
f 123//150 29//149 132//13
f 176//214 166//220 37//213
f 158//198 97//225 222//116
f 191//12 219//52 32//61
f 84//206 139//175 19//92
f 51//25 113//24 73//226
f 107//31 10//83 137//137
f 103//170 141//121 186//223
f 133//50 96//199 225//124
f 85//173 202//168 2//217
f 173//64 133//50 192//45
f 191//12 31//53 219//52
f 208//195 77//196 124//157
f 47//207 9//174 34//5
f 172//144 221//56 13//55
f 63//159 45//74 145//73
f 130//14 116//215 22//15
f 208//195 124//157 90//166
f 116//215 130//14 16//28
f 191//12 115//78 215//77
f 175//138 82//35 143//146
f 165//97 135//103 20//165
f 117//156 220//218 90//166
f 218//44 112//4 51//25
f 27//22 199//141 81//140
f 211//84 64//66 88//142
f 62//185 88//142 70//68
f 59//59 108//194 134//132
f 63//159 66//184 67//187
f 115//78 149//190 38//192
f 74//19 186//223 141//121
f 21//131 33//158 71//101
f 40//123 77//196 135//103
f 190//186 93//219 161//203
f 78//34 198//178 119//115
f 120//80 140//54 31//53
f 205//155 49//211 14//154
f 167//106 46//109 198//178
f 59//59 118//133 50//160
f 122//224 64//66 180//86
f 196//117 37//213 41//201
f 137//137 10//83 94//82
f 225//124 21//131 6//208
f 77//196 27//22 81//140
f 5//148 178//81 10//83
f 35//79 62//185 70//68
f 83//108 76//151 58//9
f 80//139 212//161 111//163
f 198//178 214//179 119//115
f 143//146 149//190 72//126
f 207//27 97//225 116//215
f 55//164 48//212 20//165
f 24//193 62//185 38//192
f 121//36 82//35 175//138
f 7//183 36//94 136//122
f 118//133 25//209 50//160
f 183//3 211//84 88//142
f 218//44 42//197 148//134
f 191//12 195//11 115//78
f 122//224 200//67 64//66
f 122//224 180//86 5//148
f 74//19 3//153 12//216
f 68//181 189//180 11//63
f 66//184 63//159 193//38
f 126//188 189//180 164//182
f 33//158 179//70 15//99
f 48//212 197//41 20//165
f 72//126 195//11 6//208
f 71//101 72//126 6//208
f 24//193 132//13 154//143
f 226//200 143//146 72//126
f 194//49 87//136 202//168
f 172//144 141//121 103//170
f 218//44 150//62 192//45
f 109//111 173//64 11//63
f 44//29 140//54 86//30
f 211//84 183//3 4//2
f 149//190 115//78 195//11
f 124//157 117//156 90//166
f 192//45 133//50 153//43
f 201//167 179//70 152//69
f 55//164 174//90 48//212
f 194//49 96//199 133//50
f 1//221 5//148 107//31
f 197//41 165//97 20//165
f 213//98 185//191 36//94
f 43//71 65//145 152//69
f 95//51 220//218 87//136
f 20//165 135//103 208//195
f 90//166 220//218 55//164
f 74//19 12//216 170//162
f 103//170 186//223 170//162
f 150//62 68//181 11//63
f 111//163 170//162 12//216
f 160//17 171//33 52//32
f 160//17 74//19 188//18
f 221//56 212//161 159//152
f 160//17 3//153 74//19
f 3//153 52//32 106//202
f 114//20 74//19 141//121
f 221//56 177//171 212//161
f 76//151 171//33 160//17
f 197//41 48//212 91//42
f 219//52 210//177 32//61
f 178//81 180//86 101//110
f 40//123 201//167 152//69
f 116//215 158//198 22//15
f 190//186 3//153 93//219
f 78//34 119//115 52//32
f 76//151 160//17 203//16
f 123//150 24//193 38//192
f 167//106 198//178 83//108
f 182//210 29//149 43//71
f 80//139 159//152 212//161
f 172//144 103//170 177//171
f 83//108 198//178 78//34
f 93//219 3//153 41//201
f 41//201 3//153 106//202
f 119//115 196//117 106//202
f 164//182 51//25 73//226
f 216//169 202//168 13//55
f 149//190 143//146 65//145
f 161//203 93//219 176//214
f 93//219 41//201 166//220
f 224//7 114//20 157//120
f 187//88 139//175 209//204
f 114//20 104//118 157//120
f 120//80 86//30 140//54
f 9//174 47//207 13//55
f 98//6 100//75 113//24
f 85//173 25//209 209//204
f 100//75 92//205 113//24
f 207//27 37//213 196//117
f 187//88 25//209 30//89
f 167//106 83//108 58//9
f 80//139 176//214 37//213
f 25//209 85//173 2//217
f 50//160 25//209 2//217
f 37//213 166//220 41//201
f 47//207 104//118 172//144
f 146//48 184//58 199//141
f 157//120 155//119 210//177
f 32//61 210//177 155//119
f 96//199 194//49 216//169
f 29//149 33//158 16//28
f 130//14 29//149 16//28
f 196//117 222//116 97//225
f 184//58 108//194 59//59
f 59//59 206//135 53//60
f 119//115 214//179 4//2
f 204//8 224//7 210//177
f 87//136 194//49 95//51
f 220//218 206//135 87//136
f 26//10 32//61 148//134
f 53//60 206//135 117//156
f 159//152 80//139 21//131
f 140//54 204//8 210//177
f 6//208 153//43 39//125
f 142//128 89//176 105//104
f 4//2 102//85 211//84
f 89//176 162//87 169//47
f 95//51 79//91 220//218
f 6//208 39//125 225//124
f 73//226 84//206 147//189
f 144//107 137//137 94//82
